# xmcd
#
# Track frame offsets: 
#        150
#        9930
#        23077
#        36252
#        48937
#        62087
#        73112
#        86130
#        100637
#        112920
#        128140
#        145067
#        158442
#        173165
#        190170
#        207232
#        223357
#        241757
#        255655
#        270295
#        282022
#        295745
#        312467
#
# Disc length: 4338 seconds
#
# Revision: 3
# Processed by: cddbd v1.5.2PL0 Copyright (c) Steve Scherf et al.
# Submitted via: ExactAudioCopyFreeDBPlugin 1.0
#
DISCID=3e10f017
DTITLE=Various Artist - Atlantic Sisters of Soul
DYEAR=1992
DGENRE=Soul
TTITLE0=Mary Wells - Dear Lover
TTITLE1=Baby Washington - I Don't Know
TTITLE2=Dee Dee Sharp - A Woman Will Do Wrong
TTITLE3=The Sweet Inspirations - Why (Am I Treated So Bad)
TTITLE4=Barbara Lynn - (Until Then) I'll Suffer
TTITLE5=Judy Clay - Sister Pitiful
TTITLE6=Toby Lark - Shake a Hand
TTITLE7=Tammi Lynn - Mojo Hannah
TTITLE8=Mary Lou - Wish Someone Would Care
TTITLE9=Margie Alexander - Can I Be Your Main Thing
TTITLE10=Jackie Moore - Wonderful, Marvelous
TTITLE11=Laura Lee - What a Man
TTITLE12=Lorraine Johnson - Can I Hold You to It
TTITLE13=Dee Dee Warwick - She Didn't Know (She Kept on Talking)
TTITLE14=Rozetta Johnson - Who Are You Gonna Love (Your Woman or Your 
TTITLE14=Wife)
TTITLE15=Jean Battle - Unsatisfied Woman
TTITLE16=Esther Phillips - Set Me Free
TTITLE17=Irma Thomas - Full Time Woman
TTITLE18=Betty Lavette - Your Turn to Cry
TTITLE19=The Pointer Sisters - Don't Try to Take the Fifth
TTITLE20=Bettye Swann - Victim of a Foolish Heart
TTITLE21=One'sy Mack - I Do Believe That I'm Losing You
TTITLE22=Margie Joseph - Sweet Surrender
EXTD=
EXTT0=
EXTT1=
EXTT2=
EXTT3=
EXTT4=
EXTT5=
EXTT6=
EXTT7=
EXTT8=
EXTT9=
EXTT10=
EXTT11=
EXTT12=
EXTT13=
EXTT14=
EXTT15=
EXTT16=
EXTT17=
EXTT18=
EXTT19=
EXTT20=
EXTT21=
EXTT22=
PLAYORDER=
